<svg width="3835" height="2459" viewBox="0 0 3835 2459" fill="none" xmlns="http://www.w3.org/2000/svg">
<g clip-path="url(#clip0_3_2)">
<path d="M-82.6672 2565.34H3914.67V-98.6503H-82.6672V2565.34ZM3916 2566.67H-84V-100H3916V2566.67Z" fill="black"/>
<path d="M265.869 2283.47H3606.84L3364.97 890.37C3322.87 647.878 3088.29 488.46 2847.32 538.59L752.585 974.386C205.324 1066.99 345.005 1895.09 265.869 2283.47Z" fill="#E3EEFE"/>
<path d="M584.193 1814.93L534.211 1720.73L531.455 1154.42C531.379 1138.83 543.997 1126.15 559.588 1126.15H584.193V1814.93Z" fill="#B9D2FF"/>
<path d="M638.035 2283.47H536.951L536.835 2259.67C574.513 2272.37 605.864 2278.61 623.26 2281.43C627.955 2282.77 632.912 2283.47 638.035 2283.47Z" fill="#B9D2FF"/>
<path d="M638.035 2283.47C638.035 2283.47 313.985 2251.74 243.316 1957.85C243.316 1957.85 447.333 1963.55 500.011 2031.62C500.011 2031.62 390.444 1950.67 373.588 1778.66C373.588 1778.66 525.393 1865.15 554.793 1950.82C554.793 1950.82 495.796 1888.55 521.081 1695.98L662.869 1963.19L638.035 2283.47Z" fill="#A7BD37"/>
<mask id="mask0_3_2" style="mask-type:luminance" maskUnits="userSpaceOnUse" x="243" y="1695" width="420" height="589">
<path d="M638.035 2283.47C638.035 2283.47 313.985 2251.74 243.316 1957.85C243.316 1957.85 447.333 1963.55 500.011 2031.62C500.011 2031.62 390.444 1950.67 373.588 1778.66C373.588 1778.66 525.393 1865.15 554.793 1950.82C554.793 1950.82 495.796 1888.55 521.081 1695.98L662.869 1963.19L638.035 2283.47Z" fill="white"/>
</mask>
<g mask="url(#mask0_3_2)">
<path d="M623.26 2281.43C605.375 2278.53 572.748 2272.02 533.648 2258.58C572.356 2189.95 563.575 1876.25 559.285 1767.98L584.193 1814.93V2229.63C584.193 2254.25 600.707 2275.01 623.26 2281.43Z" fill="#7F9526"/>
</g>
<path d="M1769.08 2283.47H638.035C608.299 2283.47 584.193 2259.37 584.193 2229.63V873.367C584.193 843.634 608.299 819.527 638.035 819.527H1769.08C1798.83 819.527 1822.92 843.634 1822.92 873.367V2229.63C1822.92 2259.37 1798.83 2283.47 1769.08 2283.47Z" fill="#D1DAF7"/>
<path d="M802.324 1078.9H685.127C662.969 1078.9 645.007 1060.94 645.007 1038.78C645.007 1016.62 662.969 998.66 685.127 998.66H802.324V1078.9Z" fill="white"/>
<path d="M802.324 998.66H919.521C941.679 998.66 959.641 1016.62 959.641 1038.78C959.641 1060.94 941.679 1078.9 919.521 1078.9H802.324V998.66Z" fill="#A4C4FF"/>
<path d="M802.115 1225.39H684.919C662.761 1225.39 644.799 1207.43 644.799 1185.27C644.799 1163.11 662.761 1145.15 684.919 1145.15H802.115V1225.39Z" fill="white"/>
<path d="M802.115 1145.15H919.312C941.469 1145.15 959.432 1163.11 959.432 1185.27C959.432 1207.43 941.469 1225.39 919.312 1225.39H802.115V1145.15Z" fill="#A4C4FF"/>
<path d="M801.907 1371.89H684.709C662.552 1371.89 644.589 1353.93 644.589 1331.77C644.589 1309.61 662.552 1291.65 684.709 1291.65H801.907V1371.89Z" fill="white"/>
<path d="M801.907 1291.65H919.103C941.261 1291.65 959.224 1309.61 959.224 1331.77C959.224 1353.93 941.261 1371.89 919.103 1371.89H801.907V1291.65Z" fill="#A4C4FF"/>
<path d="M801.697 1518.38H684.501C662.343 1518.38 644.381 1500.41 644.381 1478.26C644.381 1456.1 662.344 1438.14 684.501 1438.14H801.697V1518.38Z" fill="white"/>
<path d="M801.697 1438.14H918.895C941.052 1438.14 959.015 1456.1 959.015 1478.26C959.015 1500.41 941.052 1518.38 918.895 1518.38H801.697V1438.14Z" fill="#A4C4FF"/>
<path d="M801.489 1664.86H684.292C662.135 1664.86 644.172 1646.9 644.172 1624.74C644.172 1602.59 662.135 1584.62 684.292 1584.62H801.489V1664.86Z" fill="white"/>
<path d="M801.489 1584.62H918.685C940.844 1584.62 958.807 1602.59 958.805 1624.74C958.805 1646.9 940.844 1664.86 918.685 1664.86H801.489V1584.62Z" fill="#A4C4FF"/>
<path d="M801.28 1811.35H684.084C661.925 1811.35 643.964 1793.39 643.964 1771.23C643.964 1749.07 661.925 1731.11 684.084 1731.11H801.28V1811.35Z" fill="white"/>
<path d="M801.28 1731.11H918.477C940.635 1731.11 958.597 1749.07 958.597 1771.23C958.597 1793.39 940.635 1811.35 918.477 1811.35H801.28V1731.11Z" fill="#A4C4FF"/>
<path d="M801.072 1957.85H683.875C661.717 1957.85 643.755 1939.89 643.755 1917.73C643.755 1895.57 661.717 1877.61 683.875 1877.61H801.072V1957.85Z" fill="white"/>
<path d="M801.072 1877.61H918.268C940.427 1877.61 958.388 1895.57 958.388 1917.73C958.388 1939.89 940.427 1957.85 918.268 1957.85H801.072V1877.61Z" fill="#A4C4FF"/>
<path d="M800.863 2104.34H683.667C661.508 2104.34 643.545 2086.38 643.545 2064.22C643.545 2042.06 661.508 2024.1 683.667 2024.1H800.863V2104.34Z" fill="white"/>
<path d="M800.863 2024.1H918.06C940.217 2024.1 958.18 2042.06 958.18 2064.22C958.18 2086.38 940.217 2104.34 918.06 2104.34H800.863V2024.1Z" fill="#A4C4FF"/>
<path d="M1204.29 1078.9H1087.09C1064.94 1078.9 1046.97 1060.94 1046.97 1038.78C1046.97 1016.62 1064.94 998.66 1087.09 998.66H1204.29V1078.9Z" fill="white"/>
<path d="M1204.29 998.66H1321.49C1343.64 998.66 1361.61 1016.62 1361.61 1038.78C1361.61 1060.94 1343.64 1078.9 1321.49 1078.9H1204.29V998.66Z" fill="#A4C4FF"/>
<path d="M1204.08 1225.39H1086.89C1064.73 1225.39 1046.77 1207.43 1046.77 1185.27C1046.77 1163.11 1064.73 1145.15 1086.89 1145.15H1204.08V1225.39Z" fill="white"/>
<path d="M1204.08 1145.15H1321.28C1343.44 1145.15 1361.4 1163.11 1361.4 1185.27C1361.4 1207.43 1343.44 1225.39 1321.28 1225.39H1204.08V1145.15Z" fill="#A4C4FF"/>
<path d="M1203.87 1371.89H1086.68C1064.52 1371.89 1046.56 1353.93 1046.56 1331.77C1046.56 1309.61 1064.52 1291.65 1086.68 1291.65H1203.87V1371.89Z" fill="white"/>
<path d="M1203.87 1291.65H1321.07C1343.23 1291.65 1361.19 1309.61 1361.19 1331.77C1361.19 1353.93 1343.23 1371.89 1321.07 1371.89H1203.87V1291.65Z" fill="#A4C4FF"/>
<path d="M1203.66 1518.38H1086.47C1064.31 1518.38 1046.35 1500.41 1046.35 1478.26C1046.35 1456.1 1064.31 1438.14 1086.47 1438.14H1203.66V1518.38Z" fill="white"/>
<path d="M1203.66 1438.14H1320.87C1343.01 1438.14 1360.99 1456.1 1360.99 1478.26C1360.99 1500.41 1343.01 1518.38 1320.87 1518.38H1203.66V1438.14Z" fill="#A4C4FF"/>
<path d="M1203.45 1664.86H1086.26C1064.1 1664.86 1046.14 1646.9 1046.14 1624.74C1046.14 1602.59 1064.1 1584.62 1086.26 1584.62H1203.45V1664.86Z" fill="white"/>
<path d="M1203.45 1584.62H1320.65C1342.81 1584.62 1360.77 1602.59 1360.77 1624.74C1360.77 1646.9 1342.81 1664.86 1320.65 1664.86H1203.45V1584.62Z" fill="#A4C4FF"/>
<path d="M1203.25 1811.35H1086.05C1063.89 1811.35 1045.93 1793.39 1045.93 1771.23C1045.93 1749.07 1063.89 1731.11 1086.05 1731.11H1203.25V1811.35Z" fill="white"/>
<path d="M1203.25 1731.11H1320.44C1342.6 1731.11 1360.56 1749.07 1360.56 1771.23C1360.56 1793.39 1342.6 1811.35 1320.44 1811.35H1203.25V1731.11Z" fill="#A4C4FF"/>
<path d="M1203.04 1957.85H1085.84C1063.68 1957.85 1045.72 1939.89 1045.72 1917.73C1045.72 1895.57 1063.68 1877.61 1085.84 1877.61H1203.04V1957.85Z" fill="white"/>
<path d="M1203.04 1877.61H1320.24C1342.39 1877.61 1360.36 1895.57 1360.36 1917.73C1360.36 1939.89 1342.39 1957.85 1320.24 1957.85H1203.04V1877.61Z" fill="#A4C4FF"/>
<path d="M1202.83 2104.34H1085.63C1063.48 2104.34 1045.51 2086.38 1045.51 2064.22C1045.51 2042.06 1063.48 2024.1 1085.63 2024.1H1202.83V2104.34Z" fill="white"/>
<path d="M1202.83 2024.1H1320.03C1342.19 2024.1 1360.15 2042.06 1360.15 2064.22C1360.15 2086.38 1342.19 2104.34 1320.03 2104.34H1202.83V2024.1Z" fill="#A4C4FF"/>
<path d="M1606.25 1078.9H1489.07C1466.91 1078.9 1448.95 1060.94 1448.95 1038.78C1448.95 1016.62 1466.91 998.66 1489.07 998.66H1606.25V1078.9Z" fill="white"/>
<path d="M1606.25 998.66H1723.45C1745.61 998.66 1763.57 1016.62 1763.57 1038.78C1763.57 1060.94 1745.61 1078.9 1723.45 1078.9H1606.25V998.66Z" fill="#A4C4FF"/>
<path d="M1606.05 1225.39H1488.85C1466.69 1225.39 1448.73 1207.43 1448.73 1185.27C1448.73 1163.11 1466.69 1145.15 1488.85 1145.15H1606.05V1225.39Z" fill="white"/>
<path d="M1606.05 1145.15H1723.24C1745.4 1145.15 1763.36 1163.11 1763.36 1185.27C1763.36 1207.43 1745.4 1225.39 1723.24 1225.39H1606.05V1145.15Z" fill="#A4C4FF"/>
<path d="M1605.84 1371.89H1488.64C1466.48 1371.89 1448.52 1353.93 1448.52 1331.77C1448.52 1309.61 1466.48 1291.65 1488.64 1291.65H1605.84V1371.89Z" fill="white"/>
<path d="M1605.84 1291.65H1723.04C1745.2 1291.65 1763.16 1309.61 1763.16 1331.77C1763.16 1353.93 1745.2 1371.89 1723.04 1371.89H1605.84V1291.65Z" fill="#A4C4FF"/>
<path d="M1605.63 1518.38H1488.44C1466.28 1518.38 1448.32 1500.41 1448.32 1478.26C1448.32 1456.1 1466.28 1438.14 1488.44 1438.14H1605.63V1518.38Z" fill="white"/>
<path d="M1605.63 1438.14H1722.83C1744.99 1438.14 1762.95 1456.1 1762.95 1478.26C1762.95 1500.41 1744.99 1518.38 1722.83 1518.38H1605.63V1438.14Z" fill="#A4C4FF"/>
<path d="M1605.43 1664.86H1488.23C1466.07 1664.86 1448.11 1646.9 1448.11 1624.74C1448.11 1602.59 1466.07 1584.62 1488.23 1584.62H1605.43V1664.86Z" fill="white"/>
<path d="M1605.43 1584.62H1722.61C1744.77 1584.62 1762.73 1602.59 1762.73 1624.74C1762.73 1646.9 1744.77 1664.86 1722.61 1664.86H1605.43V1584.62Z" fill="#A4C4FF"/>
<path d="M1605.21 1811.35H1488.01C1465.85 1811.35 1447.89 1793.39 1447.89 1771.23C1447.89 1749.07 1465.85 1731.11 1488.01 1731.11H1605.21V1811.35Z" fill="white"/>
<path d="M1605.21 1731.11H1722.41C1744.57 1731.11 1762.53 1749.07 1762.53 1771.23C1762.53 1793.39 1744.57 1811.35 1722.41 1811.35H1605.21V1731.11Z" fill="#A4C4FF"/>
<path d="M1605 1957.85H1487.81C1465.65 1957.85 1447.69 1939.89 1447.69 1917.73C1447.69 1895.57 1465.65 1877.61 1487.81 1877.61H1605V1957.85Z" fill="white"/>
<path d="M1605 1877.61H1722.2C1744.36 1877.61 1762.32 1895.57 1762.32 1917.73C1762.32 1939.89 1744.36 1957.85 1722.2 1957.85H1605V1877.61Z" fill="#A4C4FF"/>
<path d="M1604.8 2104.34H1487.6C1465.44 2104.34 1447.48 2086.38 1447.48 2064.22C1447.48 2042.06 1465.44 2024.1 1487.6 2024.1H1604.8V2104.34Z" fill="white"/>
<path d="M1604.8 2024.1H1721.99C1744.15 2024.1 1762.11 2042.06 1762.11 2064.22C1762.11 2086.38 1744.15 2104.34 1721.99 2104.34H1604.8V2024.1Z" fill="#A4C4FF"/>
<path d="M2029 1696.83C2001.48 1552.34 1843.52 1283.2 1958.78 1152.52C1945.55 1306.66 2057.46 1515.39 2081.37 1640.89L2386.55 1548.05C2390.79 1561.02 2395.19 1573.09 2399.84 1584.02L2029 1696.83Z" fill="#CCDFFE"/>
<path d="M2221.83 2278.07C1941.95 2273.19 2046.64 1883.49 2028.02 1710.24H2415.65C2397.11 1882.66 2501.59 2273.55 2221.83 2278.07Z" fill="#CCDFFE"/>
<path d="M2491.36 1516.17L2081.37 1640.89C2045.33 1451.68 1809.2 1073.16 2103.66 977.947C2401.01 892.708 2416.28 1339.77 2491.36 1516.17Z" fill="#3875FF"/>
<path d="M2080.28 1655.72H2508.81C2488.23 1847.23 2603.98 2278.09 2294.55 2283.47C1985.27 2278.49 2100.78 1846.33 2080.28 1655.72Z" fill="#A4C4FF"/>
<path d="M2558.62 1672.99C2553.67 1601.96 2453.92 1574.14 2412.52 1631.24C2388.51 1580.23 2307.37 1598.35 2308.33 1655.72C2306.88 1700.2 2362.69 1727.14 2396.68 1699.39C2399.17 1711.03 2404.11 1721.75 2410.97 1730.99C2363.34 1810.79 2426.45 1920.54 2520.32 1917.95C2661.74 1919.54 2691.96 1713.42 2558.62 1672.99Z" fill="white"/>
<path d="M1027.5 1560.87H715.499C708.313 1560.87 702.488 1555.05 702.488 1547.86V1451.01C702.488 1443.83 708.313 1438.01 715.499 1438.01H1027.5C1034.68 1438.01 1040.51 1443.83 1040.51 1451.01V1547.86C1040.51 1555.05 1034.68 1560.87 1027.5 1560.87Z" fill="#38385C"/>
<mask id="mask1_3_2" style="mask-type:luminance" maskUnits="userSpaceOnUse" x="702" y="1438" width="339" height="123">
<path d="M1027.5 1560.87H715.499C708.312 1560.87 702.488 1555.05 702.488 1547.86V1451.01C702.488 1443.82 708.312 1438.01 715.499 1438.01H1027.5C1034.68 1438.01 1040.51 1443.82 1040.51 1451.01V1547.86C1040.51 1555.05 1034.68 1560.87 1027.5 1560.87Z" fill="white"/>
</mask>
<g mask="url(#mask1_3_2)">
<path d="M1056.86 1570.78H690.795V1523.27H1056.86V1570.78Z" fill="#1A1A35"/>
</g>
<path d="M986.647 2283.47H753.712C732.607 2283.47 715.499 2266.37 715.499 2245.26V1560.87H1024.86V2245.26C1024.86 2266.37 1007.75 2283.47 986.647 2283.47Z" fill="#A4C4FF"/>
<mask id="mask2_3_2" style="mask-type:luminance" maskUnits="userSpaceOnUse" x="715" y="1560" width="310" height="724">
<path d="M986.647 2283.47H753.711C732.607 2283.47 715.499 2266.37 715.499 2245.26V1560.87H1024.86V2245.26C1024.86 2266.37 1007.75 2283.47 986.647 2283.47Z" fill="white"/>
</mask>
<g mask="url(#mask2_3_2)">
<path d="M678.98 1695.98L1055.06 1661.78V2299.87H687.892L678.98 1695.98Z" fill="#3875FF"/>
</g>
<path d="M985.803 2095.61H750.952C744.033 2095.61 738.424 2090.01 738.424 2083.09V1768.7C738.424 1761.78 744.033 1756.18 750.952 1756.18H985.803C992.721 1756.18 998.331 1761.78 998.331 1768.7V2083.09C998.331 2090.01 992.721 2095.61 985.803 2095.61Z" fill="#739BFD"/>
<path d="M971.495 1835.77H765.259V1802.03H971.495V1835.77Z" fill="#A4C4FF"/>
<path d="M971.495 1889.49H765.259V1855.75H971.495V1889.49Z" fill="#A4C4FF"/>
<path d="M971.495 1943.21H765.259V1909.47H971.495V1943.21Z" fill="#A4C4FF"/>
<path d="M971.495 1996.93H765.259V1963.19H971.495V1996.93Z" fill="#A4C4FF"/>
<path d="M902.039 2050.63H765.259V2016.91H902.039V2050.63Z" fill="#A4C4FF"/>
<path d="M1226.16 2281.45C1174.74 2281.45 1124.97 2272.26 1123.71 2212.69V2104.34H1202.83V2024.1H1123.71V1957.85H1203.04V1877.61H1123.71V1811.35H1203.25V1731.11H1123.71V1664.86H1203.45V1584.62H1135.48C1142.74 1564.07 1154.22 1541.21 1172.29 1518.38H1203.66H1320.87C1343.01 1518.38 1360.99 1500.41 1360.99 1478.26C1360.99 1456.1 1343.01 1438.14 1320.87 1438.14H1259.65C1288.05 1412.51 1309.27 1389.77 1324.47 1371.74C1345.04 1370.02 1361.19 1352.78 1361.19 1331.77C1361.19 1310.41 1344.51 1292.95 1323.45 1291.71V1225.34C1344.6 1224.21 1361.4 1206.7 1361.4 1185.27C1361.4 1184.18 1361.36 1183.09 1361.27 1182.02H1442.57V2280.22H1308.27C1303.23 2279.78 1297.71 2279.62 1291.85 2279.62C1282.13 2279.62 1271.45 2280.07 1260.32 2280.54C1249.21 2280.99 1237.64 2281.45 1226.16 2281.45ZM1202.83 2024.1V2104.34H1320.03C1342.19 2104.34 1360.15 2086.38 1360.15 2064.22C1360.15 2042.06 1342.19 2024.1 1320.03 2024.1H1202.83ZM1203.04 1877.61V1957.85H1320.24C1342.39 1957.85 1360.36 1939.89 1360.36 1917.73C1360.36 1895.57 1342.39 1877.61 1320.24 1877.61H1203.04ZM1203.25 1731.11V1811.35H1320.44C1342.6 1811.35 1360.56 1793.39 1360.56 1771.23C1360.56 1749.07 1342.6 1731.11 1320.44 1731.11H1203.25ZM1203.45 1584.62V1664.86H1320.65C1342.81 1664.86 1360.77 1646.9 1360.77 1624.74C1360.77 1602.59 1342.81 1584.62 1320.65 1584.62H1203.45Z" fill="#96B3FA"/>
<path d="M1323.45 1225.34V1205.53C1323.45 1192.54 1333.99 1182.02 1346.97 1182.02H1361.27C1361.36 1183.09 1361.4 1184.18 1361.4 1185.27C1361.4 1206.7 1344.6 1224.21 1323.45 1225.34Z" fill="#7AA5FF"/>
<path d="M1324.47 1371.74C1347.09 1344.91 1356.44 1328.5 1356.44 1328.5C1354.71 1328.71 1352.97 1328.82 1351.24 1328.82C1336.89 1328.83 1323.61 1321.33 1323.45 1304.99V1291.71C1344.51 1292.95 1361.19 1310.41 1361.19 1331.77C1361.19 1352.78 1345.04 1370.02 1324.47 1371.74Z" fill="#7AA5FF"/>
<path d="M1203.66 1518.38H1172.29C1181.09 1507.25 1191.46 1496.14 1203.66 1485.31V1518.38Z" fill="#B2C9FF"/>
<path d="M1320.87 1518.38H1203.66V1485.31C1207.58 1481.85 1211.69 1478.39 1215.99 1474.99C1232.13 1462.22 1246.65 1449.87 1259.65 1438.14H1320.87C1343.01 1438.14 1360.99 1456.1 1360.99 1478.26C1360.99 1500.41 1343.01 1518.38 1320.87 1518.38Z" fill="#7AA5FF"/>
<path d="M1203.45 1664.86H1123.71V1661.61C1123.71 1661.61 1120.04 1628.35 1135.48 1584.62H1203.45V1664.86Z" fill="#B2C9FF"/>
<path d="M1320.65 1664.86H1203.45V1584.62H1320.65C1342.81 1584.62 1360.77 1602.59 1360.77 1624.74C1360.77 1646.9 1342.81 1664.86 1320.65 1664.86Z" fill="#7AA5FF"/>
<path d="M1203.25 1811.35H1123.71L1123.71 1731.11H1203.25V1811.35Z" fill="#B2C9FF"/>
<path d="M1320.44 1811.35H1203.25V1731.11H1320.44C1342.6 1731.11 1360.56 1749.07 1360.56 1771.23C1360.56 1793.39 1342.6 1811.35 1320.44 1811.35Z" fill="#7AA5FF"/>
<path d="M1123.71 1957.85H1203.04V1877.61H1123.71V1957.85Z" fill="#B2C9FF"/>
<path d="M1320.24 1957.85H1203.04V1877.61H1320.24C1342.39 1877.61 1360.36 1895.57 1360.36 1917.73C1360.36 1939.89 1342.39 1957.85 1320.24 1957.85Z" fill="#7AA5FF"/>
<path d="M1123.71 2104.34H1202.83V2024.1H1123.71V2104.34Z" fill="#B2C9FF"/>
<path d="M1320.03 2104.34H1202.83V2024.1H1320.03C1342.19 2024.1 1360.15 2042.06 1360.15 2064.22C1360.15 2086.38 1342.19 2104.34 1320.03 2104.34Z" fill="#7AA5FF"/>
<path d="M1824.07 1505.47C1768.44 1454.91 1661.56 1410.79 1671.29 1320.59C1591.97 1320.59 1482.87 1320.59 1403.56 1320.59C1413.33 1410.71 1306.24 1455.06 1250.77 1505.47C1195.48 1548.47 1163.13 1614.59 1163.13 1684.65V2229.11C1163.13 2259.14 1187.47 2283.47 1217.49 2283.47C1287.36 2281.83 1520.17 2284.66 1585.79 2283.47H1857.35C1887.37 2283.47 1911.71 2259.14 1911.71 2229.11V1684.65C1911.71 1614.59 1879.36 1548.47 1824.07 1505.47Z" fill="#F85C3D"/>
<mask id="mask3_3_2" style="mask-type:luminance" maskUnits="userSpaceOnUse" x="1163" y="1320" width="749" height="964">
<path d="M1824.07 1505.47C1768.44 1454.91 1661.56 1410.79 1671.29 1320.59C1591.97 1320.59 1482.87 1320.59 1403.56 1320.59C1413.33 1410.71 1306.24 1455.06 1250.77 1505.49C1195.48 1548.47 1163.13 1614.59 1163.13 1684.65V2229.11C1163.13 2259.14 1187.47 2283.47 1217.49 2283.47C1254.31 2282.61 1336.35 2282.99 1415.33 2283.37C1486.27 2283.7 1554.75 2284.03 1585.79 2283.47H1857.35C1887.37 2283.47 1911.71 2259.14 1911.71 2229.11V1684.65C1911.71 1614.59 1879.36 1548.47 1824.07 1505.47Z" fill="white"/>
</mask>
<g mask="url(#mask3_3_2)">
<path d="M1950.67 1673.23L1140.06 1627.45V2321.06H1936.36L1950.67 1673.23Z" fill="#DF4930"/>
</g>
<path d="M1911.71 2031.62H1163.13V1695.98H1911.71V2031.62Z" fill="white"/>
<path d="M1822.93 1801.14H1272.56V1756.18H1822.93V1801.14Z" fill="#A4C4FF"/>
<path d="M1822.93 1872.62H1272.56V1827.66H1822.93V1872.62Z" fill="#A4C4FF"/>
<path d="M1676.36 1944.1H1272.56V1899.14H1676.36V1944.1Z" fill="#A4C4FF"/>
<path d="M1822.93 1897.89H1773.36V1848.33H1725.92V1897.89H1676.36V1945.34H1725.92V1994.9H1773.36V1945.34H1822.93V1897.89Z" fill="#3875FF"/>
<path d="M1676.13 1320.59H1398.4C1377.63 1320.59 1360.79 1303.75 1360.79 1282.98V1203.18C1360.79 1182.41 1377.63 1165.57 1398.4 1165.57H1676.13C1696.91 1165.57 1713.75 1182.41 1713.75 1203.18C1709.28 1238.02 1732.29 1319.41 1676.13 1320.59Z" fill="#38385C"/>
<mask id="mask4_3_2" style="mask-type:luminance" maskUnits="userSpaceOnUse" x="1360" y="1165" width="355" height="156">
<path d="M1676.13 1320.59H1398.4C1377.63 1320.59 1360.79 1303.75 1360.79 1282.98V1203.18C1360.79 1182.41 1377.63 1165.57 1398.4 1165.57H1676.13C1696.91 1165.57 1713.75 1182.41 1713.75 1203.18C1709.28 1238.02 1732.29 1319.41 1676.13 1320.59Z" fill="white"/>
</mask>
<g mask="url(#mask4_3_2)">
<path d="M1731.61 1332.89H1346.07V1276.23H1731.61V1332.89Z" fill="#1A1A35"/>
</g>
<path d="M2516.84 354.268H2844.28C2891.3 354.268 2929.79 392.752 2929.79 439.774C2929.77 521.057 2947.87 631.414 2829.51 626.336V683.495C2829.51 701.779 2807.71 711.276 2794.32 698.803L2716.55 626.336H2516.84C2469.82 626.336 2431.35 587.851 2431.35 540.83C2431.98 469.274 2412.99 358.062 2516.84 354.268Z" fill="#A4C4FF"/>
<path d="M2521.22 488.068C2521.74 517.908 2566.11 517.891 2566.62 488.068C2566.1 458.244 2521.72 458.244 2521.22 488.068Z" fill="white"/>
<path d="M2655.64 488.076C2656.13 517.908 2700.51 517.908 2701.02 488.076C2700.51 458.244 2656.13 458.261 2655.64 488.076Z" fill="white"/>
<path d="M2790.07 488.072C2790.58 517.911 2834.96 517.893 2835.46 488.072C2834.96 458.232 2790.58 458.25 2790.07 488.072Z" fill="white"/>
<path d="M2968.79 2283.47L2817.65 2279.89L2830.69 2244.62L2915.9 2192.25V2172.25H2877.64L2866.76 1895.11C2607.01 1817.26 2731.61 1543.99 2759.76 1380.74C2759.76 1380.74 2729.76 1405.54 2690.93 1405.54C2679.73 1405.54 2667.8 1403.48 2655.63 1398.16C2607.93 1377.29 2506.42 1193.58 2482.28 1148.9L2485.93 1148.86L2533.07 1220.83C2533.07 1220.84 2533.05 1220.83 2533.07 1220.83L2605.77 1331.85C2624.03 1360.53 2654.13 1374.34 2685.84 1374.34C2686.42 1374.34 2686.98 1374.33 2687.56 1374.33C2689.6 1374.44 2691.63 1374.5 2693.59 1374.5C2715.75 1374.5 2733.13 1367.45 2748.24 1356.34C2767.35 1344.7 2784.26 1327.52 2796.19 1305.08C2787.48 1346.56 2726.93 1638.97 2730.98 1725.9C2735.27 1818.1 2890.98 1881.25 2890.98 1881.25L2901.76 1374.06H2968.79V1913.37L2967.76 1913.82L2968.79 1914.89V2283.47ZM2687 1220.7C2687 1220.7 2803.18 969.148 2809.69 961.334C2816.19 953.519 2920.49 907.974 2920.49 907.974C2920.49 907.974 2882.17 903.833 2874.91 884.904C2867.64 865.977 2888.02 720.467 2888.02 720.467L2968.79 715.736V926.032L2950.25 926.302C2950.25 926.302 2932.72 932.127 2910.94 941.06C2909.57 941.532 2828.89 969.641 2814.83 997.279L2687 1220.7Z" fill="#CBDEFE"/>
<path d="M3271.04 2276.91C3271.04 2276.91 3252.46 2256.41 3248.74 2251.29C3245.02 2246.17 3281.91 2179.94 3281.91 2179.94L3262.21 2162L3225.52 2179.94L2968.78 1914.89V1913.37L3015.76 1893.05C3017.49 1895.36 3019.33 1897.6 3021.23 1899.78L3246.14 2152.01L3301.29 2114.28L3357.43 2175.11L3271.04 2276.91Z" fill="#CBDEFE"/>
<path d="M2968.79 1914.89L2967.76 1913.82L2968.79 1913.37V1914.89Z" fill="#BCD4FE"/>
<path d="M2931.02 2134.37L2941.96 2227.22C2941.96 2227.22 2961.74 2235.51 2982.71 2235.31C3003.67 2235.1 3004.52 2228.59 3004.52 2228.59L3001.89 2133.06L2931.02 2134.37Z" fill="#FFB6A6"/>
<mask id="mask5_3_2" style="mask-type:luminance" maskUnits="userSpaceOnUse" x="2931" y="2133" width="74" height="103">
<path d="M2931.01 2134.37L2941.96 2227.22C2941.96 2227.22 2961.73 2235.51 2982.71 2235.31C3003.67 2235.1 3004.52 2228.59 3004.52 2228.59L3001.88 2133.06L2931.01 2134.37Z" fill="white"/>
</mask>
<g mask="url(#mask5_3_2)">
<path d="M3023.59 2184.18C3023.59 2184.18 2972.96 2195.65 2921.95 2170.78L2920.68 2127.26H3018.24L3023.59 2184.18Z" fill="#FF8370"/>
</g>
<path d="M3004.53 2228.59C3004.53 2228.59 2949.95 2245.65 2940.85 2209.35L2866.83 2245.42C2854.63 2251.37 2847.4 2264.34 2848.75 2277.86L2998.66 2279.89C3018.95 2280.41 3005.13 2240.46 3004.53 2228.59Z" fill="#38385C"/>
<path d="M3248.74 2113.01L3314.03 2179.94C3314.03 2179.94 3334.78 2174.45 3351.26 2161.5C3367.75 2148.55 3364.45 2142.87 3364.45 2142.87L3304.12 2068.77L3248.74 2113.01Z" fill="#FFB6A6"/>
<mask id="mask6_3_2" style="mask-type:luminance" maskUnits="userSpaceOnUse" x="3248" y="2068" width="117" height="112">
<path d="M3248.75 2113.01L3314.04 2179.94C3314.04 2179.94 3334.79 2174.45 3351.27 2161.5C3367.76 2148.55 3364.47 2142.87 3364.47 2142.87L3304.12 2068.77L3248.75 2113.01Z" fill="white"/>
</mask>
<g mask="url(#mask6_3_2)">
<path d="M3359.6 2110.62C3359.6 2110.62 3326.48 2150.58 3270.89 2161.97L3243.34 2128.25L3320.65 2068.77L3359.6 2110.62Z" fill="#FF8370"/>
</g>
<path d="M3364.47 2142.87C3364.47 2142.87 3331.61 2189.67 3302.24 2166.45L3265.59 2240.17C3259.55 2252.33 3261.74 2267.02 3271.03 2276.91L3391.1 2187.1C3407.61 2175.41 3372.07 2151.71 3364.47 2142.87Z" fill="#38385C"/>
<path d="M2952.05 941.049L2945.63 888.187C2920.54 889.947 2890.1 891.078 2890.73 857.601L2903.51 733.699L3031.53 733.729C3028.39 785.431 3032.47 889.461 3038.41 941.049H2952.05Z" fill="#FFB6A6"/>
<mask id="mask7_3_2" style="mask-type:luminance" maskUnits="userSpaceOnUse" x="2890" y="733" width="149" height="209">
<path d="M2952.04 941.047L2945.63 888.194C2920.53 889.954 2890.09 891.087 2890.72 857.607L2903.51 733.7L3031.52 733.727C3028.39 785.434 3032.45 889.46 3038.4 941.047H2952.04Z" fill="white"/>
</mask>
<g mask="url(#mask7_3_2)">
<path d="M2945.63 888.19C2945.63 888.19 2971.09 883.157 2980.78 855.816C2980.78 855.816 2983.09 905.217 2943.47 915.254L2945.63 888.19Z" fill="#FF8370"/>
<path d="M3015.2 758.014C3015.2 758.014 2934.29 780.107 2891.19 775.01L2895.09 722.888L3015.2 739.884V758.014Z" fill="#FF8370"/>
<path d="M2904.25 856.282L2935.41 847.363C2935.41 847.363 2920.54 876.348 2904.25 856.282Z" fill="white"/>
</g>
<path d="M3004.84 746.643C3004.84 746.643 2965.6 734.629 2903.51 733.706C2841.4 732.784 2861.95 678.78 2861.95 678.78C2861.95 678.78 3004.84 639.114 3034.47 678.78C3064.1 718.447 3042.12 728.005 3042.12 728.005C3112.54 726.063 3035.43 826.009 3030.04 833.157L3009.66 796.393C3009.66 796.393 3021.64 797.229 3023.58 792.487C3025.55 787.745 3029.47 767.107 3024.72 765.432C3019.98 763.757 3004.07 773.521 3004.07 773.521L3004.84 746.643Z" fill="#38385C"/>
<path d="M2950.26 926.296C2950.26 926.296 2842.81 962.008 2829.38 992.204C2815.97 1022.4 2858.97 1374.06 2858.97 1374.06H3140.14C3140.14 1374.06 3172.09 1048.13 3172.33 1023.34C3172.91 959.894 3037.16 925.035 3037.16 925.035L2950.26 926.296Z" fill="#F85C3D"/>
<path d="M2858.96 1374.06L2908.7 2161.99H3037.62V1374.06H2858.96Z" fill="#38385C"/>
<path d="M3140.13 1374.06L3165.49 1442.42C3196.53 1505.38 3160.86 1728.48 3161.24 1797.39L3343.98 2085.07L3246.16 2152.01L3021.24 1899.78C3001.07 1876.62 2989.95 1846.94 2989.95 1816.22V1374.06H3140.13Z" fill="#38385C"/>
<path d="M3037.62 1918.17C3037.62 1918.17 2989.94 1867.45 2989.94 1828.89C2989.94 1811.77 2979.1 1544.34 2979.1 1544.34C2979.1 1544.34 2946.98 1815.7 2948.28 1847.63C2949.61 1879.55 3037.62 1997.27 3037.62 1997.27V1918.17Z" fill="#1A1A35"/>
<path d="M2950.1 925.033L2989.05 925.731C2977.74 941.03 2965.67 974.336 2941.07 956.533L2920.5 937.216L2950.1 925.033Z" fill="white"/>
<path d="M2988.03 925.605C3020.49 975.189 3015.61 958.536 3059.25 931.78L3037.11 924.359L2988.03 925.605Z" fill="white"/>
<path d="M2994.65 952.789C3007.11 948.154 3003.01 926.619 2999.55 925.037C2999.55 925.037 2987.26 916.952 2979.53 925.872C2979.31 925.164 2969.75 947.463 2979.61 953.985C2974.49 997.23 2945.15 1244.54 2945.51 1250.36C2945.91 1256.75 2972.32 1320.56 2972.32 1320.56C2972.32 1320.56 3017.5 1266.06 3018.62 1256.48C3019.67 1247.65 2998.02 992.678 2994.65 952.789Z" fill="#38385C"/>
<path d="M2814.83 997.275L2687 1220.69L2522.63 1037.87L2447.4 1090.03L2605.77 1331.85C2623.02 1358.18 2652.4 1374.06 2683.9 1374.06C2738.5 1378.83 2765.66 1343.42 2796.2 1305.07C2787.49 1346.55 2726.93 1638.97 2730.97 1725.9C2735.27 1818.1 2890.99 1881.25 2890.99 1881.25L2910.96 941.051C2910.96 941.051 2829.01 969.402 2814.83 997.275Z" fill="white"/>
<mask id="mask8_3_2" style="mask-type:luminance" maskUnits="userSpaceOnUse" x="2447" y="941" width="464" height="941">
<path d="M2814.83 997.274L2687 1220.7L2522.63 1037.87L2447.4 1090.03L2605.77 1331.85C2623.03 1358.18 2652.4 1374.06 2683.89 1374.06C2738.49 1378.83 2765.65 1343.42 2796.2 1305.07C2787.48 1346.55 2726.93 1638.97 2730.97 1725.9C2735.27 1818.1 2890.99 1881.25 2890.99 1881.25L2910.96 941.047C2910.96 941.047 2829.01 969.407 2814.83 997.274Z" fill="white"/>
</mask>
<g mask="url(#mask8_3_2)">
<path d="M2903.87 1274.42C2888.26 1266.85 2851.98 1249.35 2848.44 1248.6C2843.94 1247.63 2821.13 1228.82 2821.13 1228.82L2874.91 1208.72L2904.88 1226.95L2903.87 1274.42Z" fill="#F1F6FE"/>
</g>
<path d="M2685.86 1374.34C2654.14 1374.34 2624.05 1360.52 2605.78 1331.84L2533.07 1220.83C2533.09 1220.84 2533.07 1220.82 2533.07 1220.83L2605.78 1331.84C2623.04 1358.18 2652.41 1374.06 2683.9 1374.06C2685.14 1374.16 2686.36 1374.26 2687.57 1374.32C2686.99 1374.32 2686.44 1374.34 2685.86 1374.34ZM2748.27 1356.34C2766.06 1343.26 2780.7 1324.54 2796.21 1305.07C2784.28 1327.51 2767.35 1344.7 2748.27 1356.34Z" fill="#D7E6FE"/>
<path d="M2687.57 1374.32C2686.36 1374.26 2685.13 1374.16 2683.9 1374.06C2652.41 1374.06 2623.03 1358.18 2605.78 1331.84L2533.06 1220.83C2603.17 1286.92 2649.81 1316.22 2685.45 1316.22C2740.88 1316.22 2769.77 1245.43 2819.14 1132.38L2796.2 1305.07C2780.7 1324.54 2766.06 1343.26 2748.25 1356.34C2729.27 1367.91 2708.11 1374.01 2687.57 1374.32Z" fill="#F1F6FE"/>
<path d="M3067.27 929.974C3067.27 929.974 3090.35 1776.04 3126.22 1819.7C3162.09 1863.38 3308.71 1941.1 3329 1921.74C3349.26 1902.37 3241.65 1340.88 3241.65 1283.16C3234.65 1046.03 3286.72 991.522 3067.27 929.974Z" fill="white"/>
<path d="M3264.26 1442.35C3260.23 1417.68 3256.54 1394.61 3253.33 1374.06L3264.26 1442.35Z" fill="#E3EEFE"/>
<path d="M3237.95 1445.98C3163.61 1445.98 3111.72 1362.1 3081.87 1327.32C3081.87 1327.32 3115.44 1343.38 3166.98 1368C3187.52 1377.83 3205.41 1380.78 3219.48 1380.78C3240.66 1380.78 3253.23 1374.11 3253.33 1374.06C3256.54 1394.6 3260.26 1417.67 3264.28 1442.35L3264.3 1442.5C3255.22 1444.88 3246.43 1445.98 3237.95 1445.98Z" fill="#F1F6FE"/>
<path d="M3074.81 1156.77L3074.79 1156.51C3074.79 1156.61 3074.81 1156.67 3074.81 1156.77Z" fill="#EDA59E"/>
<path d="M3189.26 1220.83L3076.28 1195.19L3074.81 1156.77C3074.81 1156.68 3074.79 1156.61 3074.79 1156.52L3157.89 1178.06C3152.47 1091.93 3189.26 1057.44 3189.26 1057.44C3173.07 1127.85 3189.26 1220.83 3189.26 1220.83Z" fill="#F1F6FE"/>
<path d="M3229.17 1013.32L3308.45 1252.26C3319.14 1284.42 3312.37 1319.81 3290.62 1345.78C3261.99 1379.95 3213.83 1390.41 3173.59 1371.18L2874.91 1228.43L2890.57 1149.55L3178.54 1220.33C3178.54 1220.33 3151.61 1065.41 3229.17 1013.32Z" fill="white"/>
<path d="M2523.43 1148.44L2356.23 1150.3C2342.22 1162.79 2204.02 938.951 2195.83 934.346C2192.7 929.821 2195.88 923.643 2201.38 923.579L2372.03 921.686C2375.88 921.638 2379.49 923.499 2381.69 926.66L2528.59 1138.44C2531.5 1142.64 2528.55 1148.38 2523.43 1148.44Z" fill="#38385C"/>
<path d="M2374.35 933.868L2508.61 1127.94L2354.23 1130.01L2221.48 937.129L2374.35 933.868Z" fill="#D1DAF7"/>
<mask id="mask9_3_2" style="mask-type:luminance" maskUnits="userSpaceOnUse" x="2221" y="933" width="288" height="198">
<path d="M2374.36 933.874L2508.61 1127.94L2354.24 1130.02L2221.49 937.127L2374.36 933.874Z" fill="white"/>
</mask>
<g mask="url(#mask9_3_2)">
<path d="M2354.23 1130.01L2317.14 1076.11C2372.02 1031.72 2343.26 955.786 2333.79 934.743L2374.35 933.868L2508.61 1127.94L2354.23 1130.01Z" fill="#DAE4FB"/>
</g>
<path d="M2506.94 1048.74C2506.94 1048.74 2473.54 1017.02 2467.85 1015.31C2462.16 1013.6 2409.53 1005.07 2409.25 1007.91C2418.4 1033.9 2444.07 1038.03 2463.07 1044.01C2463.07 1044.01 2480.11 1068.59 2479.54 1067.75C2478.95 1066.91 2506.94 1048.74 2506.94 1048.74Z" fill="#FFB6A6"/>
<path d="M2851.37 1076.56C2846.51 1074.43 2840.85 1076.63 2838.72 1081.48C2838.03 1083.38 2762.7 1253.3 2762.3 1255.23L2762.27 1255.2C2749.72 1305.86 2745.8 1305.28 2778.97 1263.74C2781.29 1261.26 2854.6 1092.03 2856.28 1089.21C2858.41 1084.36 2856.21 1078.7 2851.37 1076.56Z" fill="#38385C"/>
<path d="M2888.42 1160.35C2888.42 1160.35 2852.41 1137.49 2844.9 1137.08C2837.4 1136.66 2781.51 1148.6 2781.93 1160.35C2782.35 1172.11 2811.54 1229.66 2821.13 1228.82C2830.73 1227.99 2876.41 1220.86 2876.41 1220.86L2888.42 1160.35Z" fill="#FFB6A6"/>
<mask id="mask10_3_2" style="mask-type:luminance" maskUnits="userSpaceOnUse" x="2781" y="1137" width="108" height="92">
<path d="M2888.43 1160.35C2888.43 1160.35 2852.41 1137.49 2844.91 1137.07C2837.4 1136.66 2781.52 1148.59 2781.93 1160.35C2782.35 1172.1 2811.55 1229.66 2821.13 1228.82C2830.72 1227.99 2876.41 1220.86 2876.41 1220.86L2888.43 1160.35Z" fill="white"/>
</mask>
<g mask="url(#mask10_3_2)">
<path d="M2892.67 1180.91C2892.67 1180.91 2833.11 1225.11 2804.81 1218.26L2817.28 1234.02L2894.37 1226.83L2892.67 1180.91Z" fill="#FF8370"/>
</g>
<path d="M2957.73 785.991L2956.95 783.438L3006.16 768.642L3006.94 771.196L2957.73 785.991Z" fill="#38385C"/>
<path d="M2904.25 758.079C2884.83 758.021 2884.83 806.525 2904.25 806.463C2923.68 806.52 2923.68 758.014 2904.25 758.079ZM2904.25 809.128C2881.34 809.156 2881.34 755.38 2904.25 755.413C2927.18 755.385 2927.18 809.162 2904.25 809.128Z" fill="#38385C"/>
<path d="M2941.08 760.531C2921.66 760.471 2921.66 808.977 2941.08 808.914C2960.51 808.972 2960.51 760.467 2941.08 760.531ZM2941.08 811.58C2918.16 811.608 2918.16 757.831 2941.08 757.865C2963.99 757.838 2963.99 811.612 2941.08 811.58Z" fill="#38385C"/>
<path d="M2924.66 784.302L2920.27 783.589L2920.71 780.959L2925.09 781.669L2924.66 784.302Z" fill="#38385C"/>
<path d="M3688.82 2289.82H160.791V2277.14H3688.82V2289.82Z" fill="#38385C"/>
<path d="M1924.81 631.26C1918.08 1025.23 1332.07 1025.15 1325.39 631.246C1332.13 237.295 1918.14 237.352 1924.81 631.26Z" fill="#A4C4FF"/>
<path d="M1766.89 460.047L1578.57 648.367L1503.59 573.38L1448.95 628.02L1523.93 703.02L1523.73 703.22L1578.37 757.86L1821.53 514.687L1766.89 460.047Z" fill="#E3EEFD"/>
</g>
<defs>
<clipPath id="clip0_3_2">
<rect width="4000" height="2666.67" fill="white" transform="translate(-84 -100)"/>
</clipPath>
</defs>
</svg>
